<svg width="197" height="252" viewBox="0 0 197 252" fill="none" xmlns="http://www.w3.org/2000/svg">
<path id="Vector" d="M196.949 125.905L190.596 203.329C188.971 223.361 159.126 220.605 160.751 200.917L165.676 140.622L145.434 141.754C150.408 151.943 153.216 163.362 153.216 175.47C153.216 195.749 145.286 214.206 132.383 227.89L113.028 208.546C141.543 177.193 119.48 126.25 76.5832 126.25C63.8275 126.25 52.2046 131.123 43.4874 139.047L24.1323 119.704C34.9672 109.515 48.8064 102.427 64.2215 99.917L101.307 57.7353L80.3262 45.5287L54.9134 68.17C40.1385 81.361 20.1431 59.0642 34.9672 45.824L68.457 15.9473C73.2835 11.616 80.3262 10.9269 85.9406 14.1754C85.9406 14.1754 154.545 53.9946 154.644 54.093C162.622 59.0643 164.839 71.8123 157.648 79.9828L128.886 112.714L181.14 109.81C190.251 109.269 197.688 116.898 196.949 125.905ZM164.986 50.1062C178.825 50.1062 190.054 38.884 190.054 25.0531C190.054 11.2222 178.825 0 164.986 0C151.147 0 139.918 11.2222 139.918 25.0531C139.918 38.884 151.147 50.1062 164.986 50.1062ZM76.6324 224.69C36.9372 224.69 13.8884 180.097 35.903 147.857L16.3509 128.317C6.10696 141.262 0 157.652 0 175.421C0 239.752 74.2192 274.55 123.814 235.716L104.261 216.175C96.3816 221.54 86.8764 224.69 76.6324 224.69Z" fill="black"/>
</svg>
